<?xml version="1.0" standalone="no"?>
<!DOCTYPE svg PUBLIC "-//W3C//DTD SVG 20010904//EN"
 "http://www.w3.org/TR/2001/REC-SVG-20010904/DTD/svg10.dtd">
<svg version="1.0" xmlns="http://www.w3.org/2000/svg"
 width="1724.000000pt" height="1724.000000pt" viewBox="0 0 1724.000000 1724.000000"
 preserveAspectRatio="xMidYMid meet">
<metadata>
Created by potrace 1.14, written by Peter Selinger 2001-2017
</metadata>
<g transform="translate(0.000000,1724.000000) scale(0.100000,-0.100000)"
fill="#000000" stroke="none">
<path d="M8298 15734 c-2 -1 -50 -5 -108 -9 -58 -3 -125 -8 -150 -10 -25 -2
-74 -6 -110 -10 -36 -3 -76 -7 -90 -10 -13 -3 -52 -7 -85 -10 -33 -3 -71 -7
-85 -10 -14 -3 -43 -7 -65 -10 -42 -5 -103 -14 -139 -21 -11 -2 -73 -13 -136
-24 -311 -55 -665 -147 -975 -252 -129 -44 -341 -121 -390 -143 -16 -7 -70
-29 -120 -50 -161 -67 -523 -241 -670 -323 -238 -132 -508 -305 -730 -465
-108 -78 -341 -260 -400 -312 -16 -15 -55 -48 -85 -73 -226 -193 -524 -491
-722 -722 -25 -30 -58 -68 -73 -85 -14 -16 -53 -64 -86 -105 -83 -104 -81
-100 -114 -145 -16 -22 -32 -42 -36 -45 -3 -3 -27 -36 -54 -75 -27 -38 -52
-72 -55 -75 -4 -3 -52 -75 -108 -160 -56 -85 -108 -164 -116 -175 -77 -114
-255 -432 -353 -632 -161 -326 -249 -539 -364 -873 -39 -112 -143 -460 -153
-510 -3 -14 -16 -70 -30 -125 -22 -87 -54 -241 -70 -328 -3 -15 -10 -53 -15
-85 -6 -31 -13 -75 -16 -97 -4 -22 -8 -47 -10 -55 -5 -18 -9 -53 -30 -223 -28
-231 -29 -242 -42 -472 -10 -173 -9 -683 1 -825 5 -58 9 -125 11 -150 5 -79
16 -195 20 -210 4 -14 8 -45 21 -170 3 -30 9 -77 14 -105 14 -73 19 -103 30
-175 18 -112 24 -142 44 -230 9 -36 25 -108 37 -160 11 -52 29 -124 39 -160
10 -36 21 -78 26 -95 4 -16 8 -34 10 -40 28 -110 124 -402 187 -575 148 -400
365 -842 617 -1255 38 -62 212 -324 232 -350 5 -5 67 -89 139 -185 122 -163
201 -262 267 -335 15 -16 51 -58 80 -92 50 -59 93 -104 248 -265 411 -424 883
-797 1410 -1115 541 -327 1188 -606 1754 -757 293 -78 519 -129 710 -160 30
-5 83 -14 125 -21 17 -3 46 -8 65 -10 19 -2 51 -6 70 -9 19 -2 62 -8 95 -11
33 -4 68 -9 78 -11 15 -3 66 -7 217 -19 334 -26 881 -26 1120 -1 19 3 69 7
110 10 41 3 86 8 100 10 14 3 52 7 85 11 72 7 245 31 295 41 14 2 39 7 55 9
17 3 53 10 80 15 28 5 64 11 80 14 17 2 60 11 96 20 37 8 78 17 90 20 66 12
252 59 394 100 562 158 1082 376 1585 664 91 52 184 107 208 123 24 16 45 29
47 29 10 0 345 228 457 312 344 255 644 525 978 878 316 333 669 809 925 1245
89 152 280 520 349 675 126 279 319 814 351 970 2 8 15 56 30 105 23 80 66
256 79 325 2 14 10 48 16 75 15 63 15 62 45 237 26 152 30 179 40 263 3 28 8
65 11 83 2 17 6 47 8 65 3 17 8 66 11 107 4 41 8 93 10 115 20 224 27 796 12
1000 -19 249 -24 309 -32 365 -3 19 -7 51 -9 70 -3 19 -7 58 -11 85 -6 51 -24
174 -31 210 -5 25 -25 143 -29 170 -7 42 -16 92 -30 151 -8 34 -16 73 -19 85
-2 13 -14 62 -25 109 -12 47 -24 94 -26 106 -17 74 -96 339 -150 499 -157 472
-367 927 -628 1365 -214 360 -518 782 -727 1009 -8 9 -40 46 -70 81 -30 36
-73 83 -95 106 -22 22 -79 81 -126 130 -284 296 -586 555 -961 827 -341 248
-810 517 -1219 700 -230 103 -474 196 -735 281 -186 60 -468 139 -544 152 -14
2 -54 12 -90 20 -36 9 -76 18 -90 21 -14 2 -44 8 -68 14 -23 5 -59 12 -78 15
-20 3 -46 8 -58 10 -62 12 -197 34 -241 39 -27 3 -61 8 -75 10 -14 2 -50 7
-80 10 -30 3 -66 8 -80 10 -46 7 -124 15 -210 21 -47 3 -105 8 -130 11 -48 5
-758 12 -762 7z"/>
</g>
</svg>
